<mxfile host="app.diagrams.net" modified="2023-05-10T11:40:35.980Z" agent="Mozilla/5.0 (Windows NT 10.0; Win64; x64) AppleWebKit/537.36 (KHTML, like Gecko) Chrome/110.0.0.0 YaBrowser/23.3.3.719 Yowser/2.5 Safari/537.36" etag="94GX3AyTaO20l_zoec5U" version="21.2.9" type="device">
  <diagram id="sm91266Ict_wW0NmNDLB" name="Страница 1">
    <mxGraphModel dx="1687" dy="1758" grid="1" gridSize="1" guides="1" tooltips="1" connect="1" arrows="1" fold="1" page="1" pageScale="1" pageWidth="1169" pageHeight="827" math="0" shadow="0">
      <root>
        <mxCell id="0" />
        <mxCell id="1" parent="0" />
        <mxCell id="CzZOBHB6xr2A1SYbztx6-7" style="edgeStyle=orthogonalEdgeStyle;rounded=0;orthogonalLoop=1;jettySize=auto;html=1;entryX=0.069;entryY=0.286;entryDx=0;entryDy=0;entryPerimeter=0;endArrow=none;endFill=0;exitX=0.5;exitY=0.5;exitDx=0;exitDy=0;exitPerimeter=0;" parent="1" source="CzZOBHB6xr2A1SYbztx6-3" target="CzZOBHB6xr2A1SYbztx6-6" edge="1">
          <mxGeometry relative="1" as="geometry">
            <Array as="points">
              <mxPoint x="305" y="113" />
            </Array>
          </mxGeometry>
        </mxCell>
        <mxCell id="CzZOBHB6xr2A1SYbztx6-3" value="Гость" style="shape=umlActor;verticalLabelPosition=bottom;verticalAlign=top;html=1;outlineConnect=0;" parent="1" vertex="1">
          <mxGeometry x="290" y="78" width="30" height="60" as="geometry" />
        </mxCell>
        <mxCell id="CzZOBHB6xr2A1SYbztx6-8" style="edgeStyle=orthogonalEdgeStyle;rounded=0;orthogonalLoop=1;jettySize=auto;html=1;endArrow=none;endFill=0;entryX=0.511;entryY=0.661;entryDx=0;entryDy=0;entryPerimeter=0;" parent="1" source="CzZOBHB6xr2A1SYbztx6-4" target="CzZOBHB6xr2A1SYbztx6-6" edge="1">
          <mxGeometry relative="1" as="geometry">
            <mxPoint x="587" y="456" as="targetPoint" />
          </mxGeometry>
        </mxCell>
        <mxCell id="CzZOBHB6xr2A1SYbztx6-4" value="Автор" style="shape=umlActor;verticalLabelPosition=bottom;verticalAlign=top;html=1;outlineConnect=0;" parent="1" vertex="1">
          <mxGeometry x="597" y="297" width="30" height="60" as="geometry" />
        </mxCell>
        <mxCell id="CzZOBHB6xr2A1SYbztx6-9" style="edgeStyle=orthogonalEdgeStyle;rounded=0;orthogonalLoop=1;jettySize=auto;html=1;entryX=0.968;entryY=0.332;entryDx=0;entryDy=0;entryPerimeter=0;endArrow=none;endFill=0;" parent="1" source="CzZOBHB6xr2A1SYbztx6-5" target="CzZOBHB6xr2A1SYbztx6-6" edge="1">
          <mxGeometry relative="1" as="geometry">
            <mxPoint x="908" y="111" as="targetPoint" />
            <Array as="points">
              <mxPoint x="721" y="122" />
            </Array>
          </mxGeometry>
        </mxCell>
        <mxCell id="CzZOBHB6xr2A1SYbztx6-5" value="Администратор системы" style="shape=umlActor;verticalLabelPosition=bottom;verticalAlign=top;html=1;outlineConnect=0;" parent="1" vertex="1">
          <mxGeometry x="1006" y="162" width="30" height="60" as="geometry" />
        </mxCell>
        <mxCell id="CzZOBHB6xr2A1SYbztx6-24" style="edgeStyle=orthogonalEdgeStyle;rounded=0;orthogonalLoop=1;jettySize=auto;html=1;dashed=1;endArrow=none;endFill=0;entryX=0.5;entryY=1;entryDx=0;entryDy=0;" parent="1" source="CzZOBHB6xr2A1SYbztx6-6" target="CzZOBHB6xr2A1SYbztx6-26" edge="1">
          <mxGeometry relative="1" as="geometry">
            <mxPoint x="849" y="45" as="targetPoint" />
            <Array as="points">
              <mxPoint x="679" y="69" />
              <mxPoint x="875" y="69" />
              <mxPoint x="875" y="45" />
              <mxPoint x="871" y="45" />
            </Array>
          </mxGeometry>
        </mxCell>
        <mxCell id="CzZOBHB6xr2A1SYbztx6-29" value="&lt;font style=&quot;font-size: 8px;&quot;&gt;extend&lt;/font&gt;" style="edgeLabel;html=1;align=center;verticalAlign=middle;resizable=0;points=[];" parent="CzZOBHB6xr2A1SYbztx6-24" vertex="1" connectable="0">
          <mxGeometry x="0.1718" y="2" relative="1" as="geometry">
            <mxPoint x="-45" y="1" as="offset" />
          </mxGeometry>
        </mxCell>
        <mxCell id="CzZOBHB6xr2A1SYbztx6-35" style="edgeStyle=orthogonalEdgeStyle;rounded=0;orthogonalLoop=1;jettySize=auto;html=1;endArrow=open;endFill=0;dashed=1;exitX=0.814;exitY=0.852;exitDx=0;exitDy=0;exitPerimeter=0;entryX=0.351;entryY=0.044;entryDx=0;entryDy=0;entryPerimeter=0;" parent="1" source="CzZOBHB6xr2A1SYbztx6-34" target="CzZOBHB6xr2A1SYbztx6-6" edge="1">
          <mxGeometry relative="1" as="geometry">
            <mxPoint x="643" y="86" as="targetPoint" />
            <Array as="points">
              <mxPoint x="574" y="80" />
              <mxPoint x="666" y="80" />
            </Array>
          </mxGeometry>
        </mxCell>
        <mxCell id="CzZOBHB6xr2A1SYbztx6-36" value="&lt;font style=&quot;font-size: 8px;&quot;&gt;extend&lt;/font&gt;" style="edgeLabel;html=1;align=center;verticalAlign=middle;resizable=0;points=[];" parent="CzZOBHB6xr2A1SYbztx6-35" vertex="1" connectable="0">
          <mxGeometry x="0.2684" relative="1" as="geometry">
            <mxPoint x="2" y="-34" as="offset" />
          </mxGeometry>
        </mxCell>
        <mxCell id="CzZOBHB6xr2A1SYbztx6-67" style="edgeStyle=orthogonalEdgeStyle;rounded=0;orthogonalLoop=1;jettySize=auto;html=1;dashed=1;endArrow=open;endFill=0;" parent="1" target="CzZOBHB6xr2A1SYbztx6-6" edge="1">
          <mxGeometry relative="1" as="geometry">
            <mxPoint x="401" y="-54" as="targetPoint" />
            <mxPoint x="397" y="-69" as="sourcePoint" />
            <Array as="points">
              <mxPoint x="400" y="-69" />
              <mxPoint x="400" y="98" />
            </Array>
          </mxGeometry>
        </mxCell>
        <mxCell id="CzZOBHB6xr2A1SYbztx6-69" value="&lt;font style=&quot;font-size: 8px;&quot;&gt;extend&lt;/font&gt;" style="edgeLabel;html=1;align=center;verticalAlign=middle;resizable=0;points=[];" parent="CzZOBHB6xr2A1SYbztx6-67" vertex="1" connectable="0">
          <mxGeometry x="0.7155" y="1" relative="1" as="geometry">
            <mxPoint as="offset" />
          </mxGeometry>
        </mxCell>
        <mxCell id="CzZOBHB6xr2A1SYbztx6-6" value="Главная страница" style="ellipse;whiteSpace=wrap;html=1;" parent="1" vertex="1">
          <mxGeometry x="634" y="97" width="90" height="56" as="geometry" />
        </mxCell>
        <mxCell id="CzZOBHB6xr2A1SYbztx6-11" style="edgeStyle=orthogonalEdgeStyle;rounded=0;orthogonalLoop=1;jettySize=auto;html=1;endArrow=none;endFill=0;dashed=1;" parent="1" edge="1">
          <mxGeometry relative="1" as="geometry">
            <mxPoint x="712" y="175.99" as="sourcePoint" />
            <mxPoint x="712" y="168" as="targetPoint" />
            <Array as="points">
              <mxPoint x="712" y="163.99" />
              <mxPoint x="713" y="163.99" />
              <mxPoint x="713" y="164.99" />
            </Array>
          </mxGeometry>
        </mxCell>
        <mxCell id="CzZOBHB6xr2A1SYbztx6-10" value="Авторизация" style="ellipse;whiteSpace=wrap;html=1;" parent="1" vertex="1">
          <mxGeometry x="756" y="185" width="84" height="53" as="geometry" />
        </mxCell>
        <mxCell id="CzZOBHB6xr2A1SYbztx6-13" value="&lt;font style=&quot;font-size: 8px;&quot;&gt;extend&lt;/font&gt;" style="edgeStyle=orthogonalEdgeStyle;rounded=0;orthogonalLoop=1;jettySize=auto;html=1;endArrow=open;endFill=0;dashed=1;entryX=0.867;entryY=0.9;entryDx=0;entryDy=0;entryPerimeter=0;" parent="1" source="CzZOBHB6xr2A1SYbztx6-10" target="CzZOBHB6xr2A1SYbztx6-6" edge="1">
          <mxGeometry x="0.5765" y="-1" relative="1" as="geometry">
            <mxPoint x="766" y="194" as="sourcePoint" />
            <mxPoint x="712" y="154" as="targetPoint" />
            <Array as="points">
              <mxPoint x="712" y="208" />
            </Array>
            <mxPoint as="offset" />
          </mxGeometry>
        </mxCell>
        <mxCell id="CzZOBHB6xr2A1SYbztx6-22" style="edgeStyle=orthogonalEdgeStyle;rounded=0;orthogonalLoop=1;jettySize=auto;html=1;entryX=0.114;entryY=0.865;entryDx=0;entryDy=0;entryPerimeter=0;endArrow=open;endFill=0;dashed=1;" parent="1" source="CzZOBHB6xr2A1SYbztx6-21" target="CzZOBHB6xr2A1SYbztx6-6" edge="1">
          <mxGeometry relative="1" as="geometry" />
        </mxCell>
        <mxCell id="CzZOBHB6xr2A1SYbztx6-23" value="&lt;font style=&quot;font-size: 8px;&quot;&gt;extend&lt;/font&gt;" style="edgeLabel;html=1;align=center;verticalAlign=middle;resizable=0;points=[];" parent="CzZOBHB6xr2A1SYbztx6-22" vertex="1" connectable="0">
          <mxGeometry x="0.5299" relative="1" as="geometry">
            <mxPoint as="offset" />
          </mxGeometry>
        </mxCell>
        <mxCell id="HKZLChQpOovR4G1xa8em-35" style="edgeStyle=orthogonalEdgeStyle;rounded=0;orthogonalLoop=1;jettySize=auto;html=1;entryX=0;entryY=0.5;entryDx=0;entryDy=0;dashed=1;endArrow=none;endFill=0;" parent="1" source="CzZOBHB6xr2A1SYbztx6-21" target="HKZLChQpOovR4G1xa8em-33" edge="1">
          <mxGeometry relative="1" as="geometry" />
        </mxCell>
        <mxCell id="CzZOBHB6xr2A1SYbztx6-21" value="Регистрация" style="ellipse;whiteSpace=wrap;html=1;" parent="1" vertex="1">
          <mxGeometry x="514" y="185" width="84" height="53" as="geometry" />
        </mxCell>
        <mxCell id="HKZLChQpOovR4G1xa8em-3" style="edgeStyle=orthogonalEdgeStyle;rounded=0;orthogonalLoop=1;jettySize=auto;html=1;dashed=1;entryX=1.001;entryY=0.529;entryDx=0;entryDy=0;entryPerimeter=0;exitX=0.024;exitY=0.685;exitDx=0;exitDy=0;exitPerimeter=0;endArrow=open;endFill=0;" parent="1" source="HKZLChQpOovR4G1xa8em-4" target="CzZOBHB6xr2A1SYbztx6-26" edge="1">
          <mxGeometry relative="1" as="geometry">
            <mxPoint x="915" y="20" as="targetPoint" />
            <mxPoint x="1043" y="21" as="sourcePoint" />
            <Array as="points">
              <mxPoint x="1056" y="22" />
              <mxPoint x="1057" y="21" />
            </Array>
          </mxGeometry>
        </mxCell>
        <mxCell id="CzZOBHB6xr2A1SYbztx6-26" value="Список пользователей в системе" style="ellipse;whiteSpace=wrap;html=1;" parent="1" vertex="1">
          <mxGeometry x="824" y="-9" width="94" height="58" as="geometry" />
        </mxCell>
        <mxCell id="CzZOBHB6xr2A1SYbztx6-28" style="edgeStyle=orthogonalEdgeStyle;rounded=0;orthogonalLoop=1;jettySize=auto;html=1;entryX=0.582;entryY=0.013;entryDx=0;entryDy=0;entryPerimeter=0;endArrow=open;endFill=0;dashed=1;" parent="1" source="CzZOBHB6xr2A1SYbztx6-27" target="CzZOBHB6xr2A1SYbztx6-26" edge="1">
          <mxGeometry relative="1" as="geometry" />
        </mxCell>
        <mxCell id="CzZOBHB6xr2A1SYbztx6-30" value="&lt;font style=&quot;font-size: 8px;&quot;&gt;extend&lt;/font&gt;" style="edgeLabel;html=1;align=center;verticalAlign=middle;resizable=0;points=[];" parent="CzZOBHB6xr2A1SYbztx6-28" vertex="1" connectable="0">
          <mxGeometry x="0.1146" y="-1" relative="1" as="geometry">
            <mxPoint x="18" y="-1" as="offset" />
          </mxGeometry>
        </mxCell>
        <mxCell id="iIgpIhfE_GZTqPhTx8C9-9" value="&lt;font style=&quot;font-size: 8px;&quot;&gt;extend&lt;/font&gt;" style="edgeStyle=orthogonalEdgeStyle;rounded=0;orthogonalLoop=1;jettySize=auto;html=1;entryX=0.007;entryY=0.603;entryDx=0;entryDy=0;entryPerimeter=0;dashed=1;endArrow=open;endFill=0;" parent="1" source="CzZOBHB6xr2A1SYbztx6-27" target="CzZOBHB6xr2A1SYbztx6-44" edge="1">
          <mxGeometry relative="1" as="geometry" />
        </mxCell>
        <mxCell id="o4W43aJyCqv1yzg-YPja-1" style="edgeStyle=orthogonalEdgeStyle;rounded=0;orthogonalLoop=1;jettySize=auto;html=1;dashed=1;startArrow=none;startFill=0;endArrow=open;endFill=0;" parent="1" source="CzZOBHB6xr2A1SYbztx6-27" edge="1">
          <mxGeometry relative="1" as="geometry">
            <mxPoint x="1173" y="-38" as="targetPoint" />
          </mxGeometry>
        </mxCell>
        <mxCell id="o4W43aJyCqv1yzg-YPja-3" value="&lt;font style=&quot;font-size: 8px;&quot;&gt;extend&lt;/font&gt;" style="edgeLabel;html=1;align=center;verticalAlign=middle;resizable=0;points=[];" parent="o4W43aJyCqv1yzg-YPja-1" vertex="1" connectable="0">
          <mxGeometry x="-0.2148" y="2" relative="1" as="geometry">
            <mxPoint as="offset" />
          </mxGeometry>
        </mxCell>
        <mxCell id="CzZOBHB6xr2A1SYbztx6-27" value="Блокировка пользователя навсегда" style="ellipse;whiteSpace=wrap;html=1;" parent="1" vertex="1">
          <mxGeometry x="931" y="-67" width="94" height="58" as="geometry" />
        </mxCell>
        <mxCell id="CzZOBHB6xr2A1SYbztx6-75" style="edgeStyle=orthogonalEdgeStyle;rounded=0;orthogonalLoop=1;jettySize=auto;html=1;entryX=0.5;entryY=0;entryDx=0;entryDy=0;endArrow=open;endFill=0;dashed=1;" parent="1" source="CzZOBHB6xr2A1SYbztx6-32" target="CzZOBHB6xr2A1SYbztx6-6" edge="1">
          <mxGeometry relative="1" as="geometry">
            <Array as="points">
              <mxPoint x="679" y="-2" />
              <mxPoint x="679" y="-2" />
            </Array>
          </mxGeometry>
        </mxCell>
        <mxCell id="t2wk8PwcK764M3J-_1jS-20" style="edgeStyle=orthogonalEdgeStyle;rounded=0;orthogonalLoop=1;jettySize=auto;html=1;exitX=1;exitY=0.5;exitDx=0;exitDy=0;startArrow=open;startFill=0;dashed=1;endArrow=none;endFill=0;" edge="1" parent="1" source="CzZOBHB6xr2A1SYbztx6-32" target="t2wk8PwcK764M3J-_1jS-14">
          <mxGeometry relative="1" as="geometry">
            <mxPoint x="735" y="-66" as="sourcePoint" />
            <Array as="points">
              <mxPoint x="744" y="-66" />
              <mxPoint x="744" y="-120" />
              <mxPoint x="1060" y="-120" />
              <mxPoint x="1060" y="-346" />
              <mxPoint x="1240" y="-346" />
            </Array>
          </mxGeometry>
        </mxCell>
        <mxCell id="t2wk8PwcK764M3J-_1jS-30" value="&lt;font style=&quot;font-size: 8px;&quot;&gt;extend&lt;/font&gt;" style="edgeLabel;html=1;align=center;verticalAlign=middle;resizable=0;points=[];" vertex="1" connectable="0" parent="t2wk8PwcK764M3J-_1jS-20">
          <mxGeometry x="0.3008" y="-3" relative="1" as="geometry">
            <mxPoint as="offset" />
          </mxGeometry>
        </mxCell>
        <mxCell id="t2wk8PwcK764M3J-_1jS-33" style="edgeStyle=orthogonalEdgeStyle;rounded=0;orthogonalLoop=1;jettySize=auto;html=1;dashed=1;endArrow=none;endFill=0;entryX=0;entryY=0.5;entryDx=0;entryDy=0;startArrow=open;startFill=0;" edge="1" parent="1" source="CzZOBHB6xr2A1SYbztx6-32" target="t2wk8PwcK764M3J-_1jS-34">
          <mxGeometry relative="1" as="geometry">
            <mxPoint x="827" y="-67" as="targetPoint" />
            <Array as="points">
              <mxPoint x="760" y="-52" />
              <mxPoint x="760" y="113" />
              <mxPoint x="1241" y="113" />
              <mxPoint x="1241" y="176" />
            </Array>
          </mxGeometry>
        </mxCell>
        <mxCell id="t2wk8PwcK764M3J-_1jS-36" value="&lt;font style=&quot;font-size: 8px;&quot;&gt;extend&lt;/font&gt;" style="edgeLabel;html=1;align=center;verticalAlign=middle;resizable=0;points=[];" vertex="1" connectable="0" parent="t2wk8PwcK764M3J-_1jS-33">
          <mxGeometry x="0.5555" y="3" relative="1" as="geometry">
            <mxPoint as="offset" />
          </mxGeometry>
        </mxCell>
        <mxCell id="CzZOBHB6xr2A1SYbztx6-32" value="Страница с просмотром постов" style="ellipse;whiteSpace=wrap;html=1;" parent="1" vertex="1">
          <mxGeometry x="634" y="-95" width="94" height="58" as="geometry" />
        </mxCell>
        <mxCell id="CzZOBHB6xr2A1SYbztx6-34" value="Страница &quot;О нас&quot;" style="ellipse;whiteSpace=wrap;html=1;" parent="1" vertex="1">
          <mxGeometry x="483" y="-114" width="112" height="52" as="geometry" />
        </mxCell>
        <mxCell id="CzZOBHB6xr2A1SYbztx6-39" style="edgeStyle=orthogonalEdgeStyle;rounded=0;orthogonalLoop=1;jettySize=auto;html=1;entryX=0.667;entryY=0.026;entryDx=0;entryDy=0;entryPerimeter=0;dashed=1;endArrow=none;endFill=0;" parent="1" source="CzZOBHB6xr2A1SYbztx6-38" target="CzZOBHB6xr2A1SYbztx6-32" edge="1">
          <mxGeometry relative="1" as="geometry" />
        </mxCell>
        <mxCell id="CzZOBHB6xr2A1SYbztx6-40" value="&lt;font style=&quot;font-size: 8px;&quot;&gt;extend&lt;/font&gt;" style="edgeLabel;html=1;align=center;verticalAlign=middle;resizable=0;points=[];" parent="CzZOBHB6xr2A1SYbztx6-39" vertex="1" connectable="0">
          <mxGeometry x="0.1427" y="-3" relative="1" as="geometry">
            <mxPoint as="offset" />
          </mxGeometry>
        </mxCell>
        <mxCell id="CzZOBHB6xr2A1SYbztx6-41" value="&lt;font style=&quot;font-size: 8px;&quot;&gt;extend&lt;/font&gt;" style="edgeStyle=orthogonalEdgeStyle;rounded=0;orthogonalLoop=1;jettySize=auto;html=1;entryX=1;entryY=0;entryDx=0;entryDy=0;exitX=0.5;exitY=1;exitDx=0;exitDy=0;endArrow=open;endFill=0;dashed=1;" parent="1" source="CzZOBHB6xr2A1SYbztx6-38" target="CzZOBHB6xr2A1SYbztx6-6" edge="1">
          <mxGeometry x="-0.4876" relative="1" as="geometry">
            <Array as="points">
              <mxPoint x="808" y="105" />
            </Array>
            <mxPoint as="offset" />
          </mxGeometry>
        </mxCell>
        <mxCell id="CzZOBHB6xr2A1SYbztx6-63" style="edgeStyle=orthogonalEdgeStyle;rounded=0;orthogonalLoop=1;jettySize=auto;html=1;entryX=0.296;entryY=0.041;entryDx=0;entryDy=0;strokeColor=default;dashed=1;endArrow=open;endFill=0;entryPerimeter=0;exitX=1;exitY=0.5;exitDx=0;exitDy=0;" parent="1" source="CzZOBHB6xr2A1SYbztx6-62" target="CzZOBHB6xr2A1SYbztx6-32" edge="1">
          <mxGeometry relative="1" as="geometry">
            <mxPoint x="636" y="-192" as="sourcePoint" />
            <Array as="points">
              <mxPoint x="594" y="-245" />
              <mxPoint x="662" y="-245" />
              <mxPoint x="662" y="-93" />
            </Array>
          </mxGeometry>
        </mxCell>
        <mxCell id="CzZOBHB6xr2A1SYbztx6-66" value="extend" style="edgeLabel;html=1;align=center;verticalAlign=middle;resizable=0;points=[];fontSize=8;" parent="CzZOBHB6xr2A1SYbztx6-63" vertex="1" connectable="0">
          <mxGeometry x="0.2471" relative="1" as="geometry">
            <mxPoint x="-49" y="1" as="offset" />
          </mxGeometry>
        </mxCell>
        <mxCell id="CzZOBHB6xr2A1SYbztx6-38" value="Страница поста с детальной информацией" style="ellipse;whiteSpace=wrap;html=1;" parent="1" vertex="1">
          <mxGeometry x="753" y="-192" width="133" height="68" as="geometry" />
        </mxCell>
        <mxCell id="o4W43aJyCqv1yzg-YPja-4" value="&lt;font style=&quot;font-size: 8px;&quot;&gt;extend&lt;/font&gt;" style="edgeStyle=orthogonalEdgeStyle;rounded=0;orthogonalLoop=1;jettySize=auto;html=1;entryX=0.432;entryY=0.99;entryDx=0;entryDy=0;entryPerimeter=0;dashed=1;endArrow=open;endFill=0;" parent="1" source="CzZOBHB6xr2A1SYbztx6-44" target="CzZOBHB6xr2A1SYbztx6-46" edge="1">
          <mxGeometry relative="1" as="geometry">
            <Array as="points">
              <mxPoint x="1139" y="-172" />
              <mxPoint x="1187" y="-172" />
            </Array>
          </mxGeometry>
        </mxCell>
        <mxCell id="CzZOBHB6xr2A1SYbztx6-44" value="Выбор всех постов заблокированного пользователя" style="ellipse;whiteSpace=wrap;html=1;" parent="1" vertex="1">
          <mxGeometry x="1069" y="-154" width="139" height="67" as="geometry" />
        </mxCell>
        <mxCell id="o4W43aJyCqv1yzg-YPja-6" style="edgeStyle=orthogonalEdgeStyle;rounded=0;orthogonalLoop=1;jettySize=auto;html=1;dashed=1;endArrow=none;endFill=0;entryX=0.003;entryY=0.418;entryDx=0;entryDy=0;entryPerimeter=0;" parent="1" source="CzZOBHB6xr2A1SYbztx6-46" target="iIgpIhfE_GZTqPhTx8C9-2" edge="1">
          <mxGeometry relative="1" as="geometry">
            <mxPoint x="1330" y="-109" as="targetPoint" />
            <Array as="points">
              <mxPoint x="1295" y="-191" />
              <mxPoint x="1295" y="-109" />
              <mxPoint x="1352" y="-109" />
            </Array>
          </mxGeometry>
        </mxCell>
        <mxCell id="o4W43aJyCqv1yzg-YPja-12" style="edgeStyle=orthogonalEdgeStyle;rounded=0;orthogonalLoop=1;jettySize=auto;html=1;exitX=0.986;exitY=0.739;exitDx=0;exitDy=0;exitPerimeter=0;entryX=0.415;entryY=0.031;entryDx=0;entryDy=0;entryPerimeter=0;dashed=1;endArrow=open;endFill=0;" parent="1" source="CzZOBHB6xr2A1SYbztx6-46" target="o4W43aJyCqv1yzg-YPja-10" edge="1">
          <mxGeometry relative="1" as="geometry">
            <mxPoint x="493" y="-385" as="targetPoint" />
            <Array as="points">
              <mxPoint x="1487" y="-200" />
              <mxPoint x="1487" y="-469" />
              <mxPoint x="444" y="-469" />
            </Array>
          </mxGeometry>
        </mxCell>
        <mxCell id="o4W43aJyCqv1yzg-YPja-13" value="&lt;font style=&quot;font-size: 8px;&quot;&gt;include&lt;/font&gt;" style="edgeLabel;html=1;align=center;verticalAlign=middle;resizable=0;points=[];" parent="o4W43aJyCqv1yzg-YPja-12" vertex="1" connectable="0">
          <mxGeometry x="-0.212" y="2" relative="1" as="geometry">
            <mxPoint as="offset" />
          </mxGeometry>
        </mxCell>
        <mxCell id="CzZOBHB6xr2A1SYbztx6-46" value="Удаление постов и комментариев пользователя" style="ellipse;whiteSpace=wrap;html=1;" parent="1" vertex="1">
          <mxGeometry x="1117" y="-259" width="144" height="69" as="geometry" />
        </mxCell>
        <mxCell id="HKZLChQpOovR4G1xa8em-27" style="edgeStyle=orthogonalEdgeStyle;rounded=0;orthogonalLoop=1;jettySize=auto;html=1;dashed=1;endArrow=open;endFill=0;" parent="1" source="CzZOBHB6xr2A1SYbztx6-49" target="CzZOBHB6xr2A1SYbztx6-38" edge="1">
          <mxGeometry relative="1" as="geometry">
            <Array as="points">
              <mxPoint x="809" y="-424" />
              <mxPoint x="809" y="-294" />
            </Array>
          </mxGeometry>
        </mxCell>
        <mxCell id="CzZOBHB6xr2A1SYbztx6-49" value="Написание комментариев" style="ellipse;whiteSpace=wrap;html=1;" parent="1" vertex="1">
          <mxGeometry x="852" y="-453" width="105" height="58" as="geometry" />
        </mxCell>
        <mxCell id="o4W43aJyCqv1yzg-YPja-9" style="edgeStyle=orthogonalEdgeStyle;rounded=0;orthogonalLoop=1;jettySize=auto;html=1;dashed=1;endArrow=open;endFill=0;entryX=0.5;entryY=1;entryDx=0;entryDy=0;" parent="1" source="CzZOBHB6xr2A1SYbztx6-62" target="o4W43aJyCqv1yzg-YPja-10" edge="1">
          <mxGeometry relative="1" as="geometry">
            <mxPoint x="461" y="-306" as="targetPoint" />
          </mxGeometry>
        </mxCell>
        <mxCell id="o4W43aJyCqv1yzg-YPja-11" value="&lt;font style=&quot;font-size: 8px;&quot;&gt;include&lt;/font&gt;" style="edgeLabel;html=1;align=center;verticalAlign=middle;resizable=0;points=[];" parent="o4W43aJyCqv1yzg-YPja-9" vertex="1" connectable="0">
          <mxGeometry x="-0.1857" y="3" relative="1" as="geometry">
            <mxPoint as="offset" />
          </mxGeometry>
        </mxCell>
        <mxCell id="CzZOBHB6xr2A1SYbztx6-62" value="Удаление комментариев" style="ellipse;whiteSpace=wrap;html=1;" parent="1" vertex="1">
          <mxGeometry x="500" y="-275" width="94" height="58" as="geometry" />
        </mxCell>
        <mxCell id="CzZOBHB6xr2A1SYbztx6-68" value="Выход" style="ellipse;whiteSpace=wrap;html=1;" parent="1" vertex="1">
          <mxGeometry x="360" y="-105" width="74" height="40" as="geometry" />
        </mxCell>
        <mxCell id="CzZOBHB6xr2A1SYbztx6-71" style="edgeStyle=orthogonalEdgeStyle;rounded=0;orthogonalLoop=1;jettySize=auto;html=1;dashed=1;endArrow=none;endFill=0;" parent="1" source="CzZOBHB6xr2A1SYbztx6-70" edge="1">
          <mxGeometry relative="1" as="geometry">
            <mxPoint x="400" y="-19" as="targetPoint" />
          </mxGeometry>
        </mxCell>
        <mxCell id="CzZOBHB6xr2A1SYbztx6-70" value="&lt;font style=&quot;font-size: 12px;&quot;&gt;если пользователь авторизирован&lt;/font&gt;" style="rounded=0;whiteSpace=wrap;html=1;fillStyle=auto;strokeColor=default;fontFamily=Helvetica;fontSize=12;fontColor=#030303;fillColor=default;gradientColor=none;" parent="1" vertex="1">
          <mxGeometry x="432" y="-36" width="121" height="35" as="geometry" />
        </mxCell>
        <mxCell id="CzZOBHB6xr2A1SYbztx6-73" style="edgeStyle=orthogonalEdgeStyle;rounded=0;orthogonalLoop=1;jettySize=auto;html=1;endArrow=none;endFill=0;dashed=1;" parent="1" edge="1">
          <mxGeometry relative="1" as="geometry">
            <mxPoint x="876" y="55" as="targetPoint" />
            <Array as="points">
              <mxPoint x="928" y="56" />
            </Array>
            <mxPoint x="926" y="56" as="sourcePoint" />
          </mxGeometry>
        </mxCell>
        <mxCell id="CzZOBHB6xr2A1SYbztx6-72" value="если пользователь является администратором системы" style="rounded=0;whiteSpace=wrap;html=1;fillStyle=auto;strokeColor=default;fontFamily=Helvetica;fontSize=12;fontColor=#030303;fillColor=default;gradientColor=none;" parent="1" vertex="1">
          <mxGeometry x="929" y="51" width="167" height="51" as="geometry" />
        </mxCell>
        <mxCell id="CzZOBHB6xr2A1SYbztx6-77" style="edgeStyle=orthogonalEdgeStyle;rounded=0;orthogonalLoop=1;jettySize=auto;html=1;dashed=1;endArrow=none;endFill=0;exitX=0.5;exitY=0;exitDx=0;exitDy=0;" parent="1" source="CzZOBHB6xr2A1SYbztx6-76" edge="1">
          <mxGeometry relative="1" as="geometry">
            <mxPoint x="661" y="-210" as="targetPoint" />
            <Array as="points">
              <mxPoint x="582" y="-209" />
              <mxPoint x="663" y="-209" />
            </Array>
          </mxGeometry>
        </mxCell>
        <mxCell id="CzZOBHB6xr2A1SYbztx6-76" value="Если пользователь - администратор системы" style="rounded=0;whiteSpace=wrap;html=1;fillStyle=auto;strokeColor=default;fontFamily=Helvetica;fontSize=12;fontColor=#030303;fillColor=default;gradientColor=none;" parent="1" vertex="1">
          <mxGeometry x="518" y="-180" width="127" height="43" as="geometry" />
        </mxCell>
        <mxCell id="HKZLChQpOovR4G1xa8em-2" style="edgeStyle=orthogonalEdgeStyle;rounded=0;orthogonalLoop=1;jettySize=auto;html=1;dashed=1;endArrow=none;endFill=0;" parent="1" source="HKZLChQpOovR4G1xa8em-1" edge="1">
          <mxGeometry relative="1" as="geometry">
            <mxPoint x="808" y="-323" as="targetPoint" />
            <Array as="points">
              <mxPoint x="684" y="-327" />
              <mxPoint x="800" y="-327" />
              <mxPoint x="800" y="-323" />
              <mxPoint x="808" y="-323" />
            </Array>
          </mxGeometry>
        </mxCell>
        <mxCell id="HKZLChQpOovR4G1xa8em-1" value="Комментарии только на чужих постах (при этом, можно отвечать на комментарии под своими постами)." style="rounded=0;whiteSpace=wrap;html=1;fillStyle=auto;strokeColor=default;fontFamily=Helvetica;fontSize=12;fontColor=#030303;fillColor=default;gradientColor=none;" parent="1" vertex="1">
          <mxGeometry x="628" y="-447" width="155" height="75" as="geometry" />
        </mxCell>
        <mxCell id="HKZLChQpOovR4G1xa8em-4" value="Блокировка пользователя на время" style="ellipse;whiteSpace=wrap;html=1;" parent="1" vertex="1">
          <mxGeometry x="1057" y="-18" width="94" height="58" as="geometry" />
        </mxCell>
        <mxCell id="HKZLChQpOovR4G1xa8em-22" style="edgeStyle=orthogonalEdgeStyle;rounded=0;orthogonalLoop=1;jettySize=auto;html=1;endArrow=open;endFill=0;dashed=1;exitX=0.1;exitY=0.773;exitDx=0;exitDy=0;exitPerimeter=0;" parent="1" source="t2wk8PwcK764M3J-_1jS-9" edge="1">
          <mxGeometry relative="1" as="geometry">
            <mxPoint x="675" y="-96" as="targetPoint" />
            <Array as="points">
              <mxPoint x="1013" y="-394" />
              <mxPoint x="973" y="-394" />
              <mxPoint x="973" y="-336" />
              <mxPoint x="880" y="-336" />
              <mxPoint x="880" y="-256" />
              <mxPoint x="675" y="-256" />
            </Array>
            <mxPoint x="936.6563279950624" y="-336" as="sourcePoint" />
          </mxGeometry>
        </mxCell>
        <mxCell id="HKZLChQpOovR4G1xa8em-29" value="&lt;font style=&quot;font-size: 8px;&quot;&gt;extend&lt;/font&gt;" style="edgeLabel;html=1;align=center;verticalAlign=middle;resizable=0;points=[];" parent="HKZLChQpOovR4G1xa8em-22" vertex="1" connectable="0">
          <mxGeometry x="-0.5324" relative="1" as="geometry">
            <mxPoint as="offset" />
          </mxGeometry>
        </mxCell>
        <mxCell id="HKZLChQpOovR4G1xa8em-34" style="edgeStyle=orthogonalEdgeStyle;rounded=0;orthogonalLoop=1;jettySize=auto;html=1;endArrow=none;endFill=0;dashed=1;" parent="1" source="HKZLChQpOovR4G1xa8em-33" edge="1">
          <mxGeometry relative="1" as="geometry">
            <mxPoint x="716" y="204" as="targetPoint" />
          </mxGeometry>
        </mxCell>
        <mxCell id="HKZLChQpOovR4G1xa8em-33" value="&lt;font style=&quot;font-size: 12px;&quot;&gt;если пользователь гость&lt;/font&gt;" style="rounded=0;whiteSpace=wrap;html=1;fillStyle=auto;strokeColor=default;fontFamily=Helvetica;fontSize=12;fontColor=#030303;fillColor=default;gradientColor=none;" parent="1" vertex="1">
          <mxGeometry x="713" y="279" width="121" height="35" as="geometry" />
        </mxCell>
        <mxCell id="iIgpIhfE_GZTqPhTx8C9-2" value="Если пользователь является администратором&amp;nbsp;" style="rounded=0;whiteSpace=wrap;html=1;fillStyle=auto;strokeColor=default;fontFamily=Helvetica;fontSize=12;fontColor=#030303;fillColor=default;gradientColor=none;" parent="1" vertex="1">
          <mxGeometry x="1352" y="-131" width="116" height="48" as="geometry" />
        </mxCell>
        <mxCell id="o4W43aJyCqv1yzg-YPja-5" value="&lt;font style=&quot;font-size: 8px;&quot;&gt;extend&lt;/font&gt;" style="edgeStyle=orthogonalEdgeStyle;rounded=0;orthogonalLoop=1;jettySize=auto;html=1;entryX=0.731;entryY=0.947;entryDx=0;entryDy=0;entryPerimeter=0;endArrow=open;endFill=0;dashed=1;" parent="1" source="o4W43aJyCqv1yzg-YPja-2" target="CzZOBHB6xr2A1SYbztx6-46" edge="1">
          <mxGeometry x="-0.5273" relative="1" as="geometry">
            <mxPoint as="offset" />
          </mxGeometry>
        </mxCell>
        <mxCell id="o4W43aJyCqv1yzg-YPja-2" value="Выбор постов заблокированного пользователя" style="ellipse;whiteSpace=wrap;html=1;" parent="1" vertex="1">
          <mxGeometry x="1174" y="-75" width="139" height="67" as="geometry" />
        </mxCell>
        <mxCell id="o4W43aJyCqv1yzg-YPja-10" value="Удаление ветки комментариев" style="ellipse;whiteSpace=wrap;html=1;" parent="1" vertex="1">
          <mxGeometry x="400" y="-385" width="106" height="64" as="geometry" />
        </mxCell>
        <mxCell id="t2wk8PwcK764M3J-_1jS-3" style="edgeStyle=orthogonalEdgeStyle;rounded=0;orthogonalLoop=1;jettySize=auto;html=1;dashed=1;endArrow=open;endFill=0;" edge="1" parent="1" source="t2wk8PwcK764M3J-_1jS-2">
          <mxGeometry relative="1" as="geometry">
            <mxPoint x="870" y="-255" as="targetPoint" />
          </mxGeometry>
        </mxCell>
        <mxCell id="t2wk8PwcK764M3J-_1jS-5" style="edgeStyle=orthogonalEdgeStyle;rounded=0;orthogonalLoop=1;jettySize=auto;html=1;dashed=1;endArrow=open;endFill=0;" edge="1" parent="1" source="t2wk8PwcK764M3J-_1jS-2">
          <mxGeometry relative="1" as="geometry">
            <mxPoint x="820" y="-206" as="targetPoint" />
          </mxGeometry>
        </mxCell>
        <mxCell id="t2wk8PwcK764M3J-_1jS-2" value="Если пользователь автор&amp;nbsp;" style="rounded=0;whiteSpace=wrap;html=1;fillStyle=auto;strokeColor=default;fontFamily=Helvetica;fontSize=12;fontColor=#030303;fillColor=default;gradientColor=none;" vertex="1" parent="1">
          <mxGeometry x="891" y="-229" width="148" height="41" as="geometry" />
        </mxCell>
        <mxCell id="t2wk8PwcK764M3J-_1jS-17" style="edgeStyle=orthogonalEdgeStyle;rounded=0;orthogonalLoop=1;jettySize=auto;html=1;dashed=1;endArrow=open;endFill=0;" edge="1" parent="1" source="t2wk8PwcK764M3J-_1jS-9" target="t2wk8PwcK764M3J-_1jS-14">
          <mxGeometry relative="1" as="geometry" />
        </mxCell>
        <mxCell id="t2wk8PwcK764M3J-_1jS-31" value="&lt;font style=&quot;font-size: 8px;&quot;&gt;extend&lt;/font&gt;" style="edgeLabel;html=1;align=center;verticalAlign=middle;resizable=0;points=[];" vertex="1" connectable="0" parent="t2wk8PwcK764M3J-_1jS-17">
          <mxGeometry x="-0.3904" y="1" relative="1" as="geometry">
            <mxPoint as="offset" />
          </mxGeometry>
        </mxCell>
        <mxCell id="t2wk8PwcK764M3J-_1jS-14" value="Написание поста" style="ellipse;whiteSpace=wrap;html=1;" vertex="1" parent="1">
          <mxGeometry x="1183" y="-443" width="120" height="64" as="geometry" />
        </mxCell>
        <mxCell id="t2wk8PwcK764M3J-_1jS-9" value="Страница создания и редактирования поста" style="ellipse;whiteSpace=wrap;html=1;" vertex="1" parent="1">
          <mxGeometry x="1000" y="-446" width="134" height="69" as="geometry" />
        </mxCell>
        <mxCell id="t2wk8PwcK764M3J-_1jS-38" style="edgeStyle=orthogonalEdgeStyle;rounded=0;orthogonalLoop=1;jettySize=auto;html=1;dashed=1;endArrow=none;endFill=0;entryX=0.619;entryY=0.014;entryDx=0;entryDy=0;entryPerimeter=0;" edge="1" parent="1" source="t2wk8PwcK764M3J-_1jS-26" target="t2wk8PwcK764M3J-_1jS-35">
          <mxGeometry relative="1" as="geometry">
            <mxPoint x="1238" y="61" as="targetPoint" />
            <Array as="points">
              <mxPoint x="1337" y="2" />
              <mxPoint x="1337" y="31" />
            </Array>
          </mxGeometry>
        </mxCell>
        <mxCell id="t2wk8PwcK764M3J-_1jS-26" value="Если пользователь является администратором системы" style="rounded=0;whiteSpace=wrap;html=1;fillStyle=auto;strokeColor=default;fontFamily=Helvetica;fontSize=12;fontColor=#030303;fillColor=default;gradientColor=none;" vertex="1" parent="1">
          <mxGeometry x="1448" y="-46" width="150" height="63" as="geometry" />
        </mxCell>
        <mxCell id="t2wk8PwcK764M3J-_1jS-34" value="&amp;nbsp;Редактировать пост" style="ellipse;whiteSpace=wrap;html=1;" vertex="1" parent="1">
          <mxGeometry x="1266" y="145" width="120" height="64" as="geometry" />
        </mxCell>
        <mxCell id="t2wk8PwcK764M3J-_1jS-37" style="edgeStyle=orthogonalEdgeStyle;rounded=0;orthogonalLoop=1;jettySize=auto;html=1;dashed=1;endArrow=none;endFill=0;startArrow=none;startFill=0;" edge="1" parent="1" source="t2wk8PwcK764M3J-_1jS-35">
          <mxGeometry relative="1" as="geometry">
            <mxPoint x="1229" y="116" as="targetPoint" />
          </mxGeometry>
        </mxCell>
        <mxCell id="t2wk8PwcK764M3J-_1jS-35" value="Удаление поста" style="ellipse;whiteSpace=wrap;html=1;" vertex="1" parent="1">
          <mxGeometry x="1257" y="30" width="134" height="69" as="geometry" />
        </mxCell>
      </root>
    </mxGraphModel>
  </diagram>
</mxfile>
